<svg t="1631578587769" class="icon" viewBox="0 0 1024 1024" version="1.1" xmlns="http://www.w3.org/2000/svg" p-id="3573" width="200" height="200"><path d="M67.965 445.975c0 201.937 163.702 365.639 365.639 365.639 83.622 0 160.637-28.132 222.236-75.365l215.773 215.842c18.346 18.351 48.371 18.354 66.722 0.008l2.085-2.085c18.351-18.346 18.354-48.371 0.008-66.722L724.555 667.35c46.831-61.455 74.689-138.147 74.689-221.375 0-201.937-163.702-365.639-365.639-365.639S67.965 244.038 67.965 445.975zM158.638 445.238c0-151.453 122.777-274.229 274.229-274.229s274.229 122.777 274.229 274.229c0 151.453-122.777 274.229-274.229 274.229S158.638 596.691 158.638 445.238z" p-id="3574" fill="#707070"></path></svg>