<?xml version="1.0" standalone="no"?><!DOCTYPE svg PUBLIC "-//W3C//DTD SVG 1.1//EN" "http://www.w3.org/Graphics/SVG/1.1/DTD/svg11.dtd"><svg t="1632039297971" class="icon" viewBox="0 0 1024 1024" version="1.1" xmlns="http://www.w3.org/2000/svg" p-id="20911" xmlns:xlink="http://www.w3.org/1999/xlink" width="200" height="200"><defs><style type="text/css"></style></defs><path d="M149.9392 620.50816c-19.74272 0-32.91136 14.8992-32.91136 37.23776v148.9408c0 22.33856 13.16864 37.23776 32.91136 37.23776h65.82784c19.75808 0 32.92672-14.8992 32.92672-37.23776v-148.9408c0-22.33856-13.16864-37.23776-32.92672-37.23776H149.9392z m0-74.4704h65.82784c55.95648 0 98.74432 48.39424 98.74432 111.70816v148.9408c0 63.29856-42.78272 111.70816-98.74432 111.70816H149.9392C93.98272 918.4 51.2 869.9904 51.2 806.69184v-148.9408c0-63.31392 42.78272-111.71328 98.7392-111.71328z m329.15456-148.94592h65.8176c55.95136 0 98.74432 48.38912 98.74432 111.70816v297.89184c0 63.29856-42.79296 111.70816-98.74432 111.70816H479.09376c-55.9616 0-98.75456-48.4096-98.75456-111.70816V508.8c0-63.31904 42.79808-111.70816 98.75456-111.70816z m0 74.4704c-19.7632 0-32.93184 14.8736-32.93184 37.23776v297.89184c0 22.33856 13.16864 37.23776 32.93184 37.23776h65.8176c19.74272 0 32.9216-14.8992 32.9216-37.23776V508.8c0-22.36416-13.17376-37.23776-32.9216-37.23776H479.09376z m329.13408-372.36224h65.82784c55.95648 0 98.7392 48.38912 98.7392 111.70816v595.77856c0 63.29856-42.78272 111.70816-98.7392 111.70816h-65.82784c-55.95648 0-98.7392-48.4096-98.7392-111.70816V210.90816c0-63.31904 42.78784-111.70816 98.7392-111.70816z m0 74.4448c-19.75296 0-32.91648 14.8992-32.91648 37.26336v595.77856c0 22.33856 13.1584 37.23776 32.91648 37.23776h65.82784c19.7376 0 32.91136-14.8992 32.91136-37.23776V210.90816c0-22.36416-13.16864-37.26336-32.91136-37.26336h-65.82784z m0 0" p-id="20912" fill="#515151"></path></svg>