<?xml version="1.0" standalone="no"?><!DOCTYPE svg PUBLIC "-//W3C//DTD SVG 1.1//EN" "http://www.w3.org/Graphics/SVG/1.1/DTD/svg11.dtd"><svg t="1632039355766" class="icon" viewBox="0 0 1024 1024" version="1.1" xmlns="http://www.w3.org/2000/svg" p-id="22756" xmlns:xlink="http://www.w3.org/1999/xlink" width="200" height="200"><defs><style type="text/css"></style></defs><path d="M941.787 229.79c0-72.493-62.138-134.631-134.632-134.631H232.38c-72.494 0-134.632 62.138-134.632 134.632v572.186c0 72.494 62.138 134.632 134.632 134.632h572.186c72.494 0 134.632-62.138 134.632-134.632v-142.4H636.276c0-2.589-116.509 7.768-116.509-137.22 0-155.345 126.865-144.989 126.865-144.989h295.155V229.791z" p-id="22757" fill="#515151"></path><path d="M574.138 519.767c0 100.974 90.618 90.618 90.618 90.618H931.43v-194.18H672.523c0 2.588-98.385-5.179-98.385 103.562z m100.974-44.014c18.123 0 33.658 15.534 33.658 33.658 0 12.945-7.767 23.302-18.124 31.069-10.356 5.178-23.301 5.178-33.658 0s-18.123-18.124-18.123-31.07c2.589-18.123 18.123-33.657 36.247-33.657z" p-id="22758" fill="#515151"></path></svg>