<?xml version="1.0" standalone="no"?><!DOCTYPE svg PUBLIC "-//W3C//DTD SVG 1.1//EN" "http://www.w3.org/Graphics/SVG/1.1/DTD/svg11.dtd"><svg t="1632039403201" class="icon" viewBox="0 0 1024 1024" version="1.1" xmlns="http://www.w3.org/2000/svg" p-id="24464" xmlns:xlink="http://www.w3.org/1999/xlink" width="200" height="200"><defs><style type="text/css"></style></defs><path d="M639.821109 0.215534c19.182488 0 31.952852 12.770364 31.952852 32.006735V153.783204c25.594612 12.770364 51.189223 25.594612 70.371711 38.364975l102.324564-63.959587a33.731004 33.731004 0 0 1 44.723216 12.770364l127.973058 223.993265c12.770364 19.182488 6.35824 38.364976-12.824247 44.777099L902.017699 473.742791v76.783835l102.378447 63.959587c12.770364 6.412124 19.128605 25.594612 12.770364 44.7771l-127.919175 223.939381c-6.412124 12.824248-25.594612 19.236371-44.777099 12.824248l-102.378447-64.013471c-19.128605 12.824248-44.723216 32.006735-70.317828 38.418859v121.560935c0 19.236371-12.770364 32.006735-31.952852 32.006735H383.982759c-19.182488 0-31.952852-12.824248-31.952852-32.006735V870.43233c-25.594612-12.770364-51.189223-25.594612-70.371711-38.364976l-102.324563 63.959588a33.731004 33.731004 0 0 1-44.723216-12.824248L6.583475 659.317196c-12.770364-19.182488-6.35824-38.364976 12.824248-44.777099l102.324563-64.013471V473.688908L19.407723 409.72932c-19.128605-6.412124-25.540728-25.594612-12.770365-44.777099l127.919175-223.993265c6.412124-12.770364 25.594612-19.182488 44.7771-6.35824l102.378446 63.959587c19.128605-12.770364 44.723216-32.006735 70.317828-38.364976V32.222269c0-19.182488 12.770364-32.006735 31.952852-32.006735h255.83835z m-43.483898 71.988213H415.989495v106.527467a35.185856 35.185856 0 0 1-19.182488 32.006736c-32.006735 12.824248-66.38434 36.101873-91.925069 55.230478a40.735845 40.735845 0 0 1-38.418859 0L172.975392 211.438434 86.923614 371.364344l92.410019 57.547464c12.824248 6.412124 19.182488 19.182488 12.824247 32.006735 0 19.182488-6.466007 32.006735-6.466007 51.189224s0 40.089244 6.466007 59.271732c6.35824 12.824248 0 25.648495-12.824247 32.006735l-92.410019 55.877079 85.997895 153.56767 105.988634-62.181436a40.735845 40.735845 0 0 1 38.364976 0 407.681751 407.681751 0 0 0 89.554199 51.189224 35.185856 35.185856 0 0 1 19.182488 32.006735v115.687645h166.607451l1.832035-115.202694c0-12.770364 6.412124-25.594612 19.182488-31.952852a413.555041 413.555041 0 0 0 90.146917-51.728058 40.735845 40.735845 0 0 1 38.364975 0l109.544938 67.946959 83.788676-153.998737-97.421174-61.480951c-12.770364-12.824248-19.182488-25.594612-12.770364-38.41886 0-19.182488 6.35824-31.952852 6.35824-51.189223 0-19.182488 0-36.964008-6.35824-56.146495 0-12.770364 6.35824-25.594612 12.770364-32.006736l97.421174-60.403283-91.062934-144.730794-88.907598 45.800884a40.735845 40.735845 0 0 1-38.364976 0c-25.594612-19.236371-69.671227-42.460114-101.624079-55.284361-12.824248-12.770364-19.182488-25.594612-19.182488-38.364976V72.203747zM511.901934 320.121238c108.736687 0 191.824879 83.195959 191.824879 191.986529s-83.088192 191.986529-191.824879 191.986529S320.077055 620.844454 320.077055 512.107767 403.111364 320.121238 511.901934 320.121238z m0 64.01347A128.296359 128.296359 0 0 0 383.982759 512.107767 128.296359 128.296359 0 0 0 511.901934 640.080825 128.296359 128.296359 0 0 0 639.821109 512.107767 128.296359 128.296359 0 0 0 511.901934 384.134708z" fill="#515151" p-id="24465"></path></svg>